<svg xmlns="http://www.w3.org/2000/svg" width="16.583" height="16.544" viewBox="0 0 16.583 16.544">
  <path id="time" d="M8.292.25a7.99,7.99,0,0,1,5.864,2.427,7.967,7.967,0,0,1,2.427,5.845,7.967,7.967,0,0,1-2.427,5.845,7.99,7.99,0,0,1-5.864,2.427,7.99,7.99,0,0,1-5.864-2.427A7.969,7.969,0,0,1,0,8.522,7.965,7.965,0,0,1,2.427,2.677,7.991,7.991,0,0,1,8.292.25Zm0,14.913a6.379,6.379,0,0,0,4.68-1.942,6.4,6.4,0,0,0,1.942-4.7,6.4,6.4,0,0,0-1.942-4.7,6.379,6.379,0,0,0-4.68-1.942,6.379,6.379,0,0,0-4.68,1.942,6.4,6.4,0,0,0-1.942,4.7,6.4,6.4,0,0,0,1.942,4.7A6.379,6.379,0,0,0,8.292,15.163ZM8.7,4.367v4.35l3.728,2.214-.621,1.049L7.457,9.337V4.367H8.7Z" transform="translate(0 -0.25)" fill="#f86624"/>
</svg>
