<svg id="Group_2" data-name="Group 2" xmlns="http://www.w3.org/2000/svg" xmlns:xlink="http://www.w3.org/1999/xlink" width="528.052" height="144.253" viewBox="0 0 528.052 144.253">
  <defs>
    <clipPath id="clip-path">
      <rect id="Rectangle_262" data-name="Rectangle 262" width="528.052" height="144.253" fill="none"/>
    </clipPath>
  </defs>
  <g id="Group_1" data-name="Group 1" clip-path="url(#clip-path)">
    <path id="Path_3" data-name="Path 3" d="M46.754,143.926c-.491.327-1.684.407-3.566.246a23.518,23.518,0,0,1-5.9-1.352,15.343,15.343,0,0,1-4.8-2.583,19.33,19.33,0,0,1-1.967-2.337q-.987-1.35-.862-4.8a81.385,81.385,0,0,1,1.6-11.07q.981-4.918,2.46-10.332t3.936-13.284q1.229-.491,3.568-7.38t5.288-16.728q.981-3.441,3.444-11.562T54.872,47A100.292,100.292,0,0,1,61.023,32q-5.906,3.448-10.579,6.4T40.6,45.28a78.627,78.627,0,0,0-9.472,6.765,90.135,90.135,0,0,1-9.717,7.011q-6.642,5.166-8.978,6.642a4.184,4.184,0,0,1-4.551.247,26.993,26.993,0,0,1-6.028-8Q-.971,52.663.506,50.2,1,49.959,3.827,47.987t6.52-4.674q3.69-2.7,6.764-4.921t4.305-2.951q.738,0,2.706-1.723a40.16,40.16,0,0,1,4.183-3.2q1.227-1.478,8.609-6.643T52.9,12.317a178,178,0,0,1,16.237-9.1q7.131-3.442,8.117-3.2.738,0,3.567,1.723A49.369,49.369,0,0,1,86.36,5.674q2.7,2.216,2.953,3.69,1.474,1.725-1.477,7.873-.985,2.213-3.2,8t-4.8,13.283q-2.583,7.508-4.92,14.761T71.108,65.7a116.479,116.479,0,0,1-3.567,11.808q-1.6,4.187-2.952,8T61.515,95.956a94.278,94.278,0,0,0-3.568,9.963q-1.844,6.032-3.321,11.808T52.412,127.2a95.6,95.6,0,0,0-3.2,10.579q-1.233,5.165-2.46,6.149" fill="#0a9faf"/>
    <path id="Path_4" data-name="Path 4" d="M109.976,97.187q-1.476,0-3.69-.123a17.311,17.311,0,0,1-4.92-1.107,9.29,9.29,0,0,1-5.78-1.6,11.422,11.422,0,0,1-3.076-3.321q-2.709-3.69.369-5.782t12.177-3.075a87.131,87.131,0,0,1,12.423-1.6q8.24-.612,17.835-.985t18.2-.614q8.607-.243,13.53-.246a48.55,48.55,0,0,1,11.439,1.229,16.175,16.175,0,0,1,7.749,3.937q3.69,3.69,1.722,7.749t-7.626,3.074c-.823,0-2.379.085-4.674.246s-4.8.331-7.5.492-5.043.331-7.011.493q-1.476,0-8.118.246t-15.375.492q-8.734.248-16.482.369t-11.193.123m32.964,38.376q-3.69,2.709-5.781-.369t-3.074-12.178a85.608,85.608,0,0,1-1.6-12.423q-.616-8.238-.983-17.835t-.616-18.2q-.248-8.607-.246-13.529a48.3,48.3,0,0,1,1.23-11.44,17.544,17.544,0,0,1,3.69-7.749q3.69-3.69,7.872-1.721t3.2,7.626A35.8,35.8,0,0,1,147,52.415q.122,3.447.369,7.5t.492,7.011q0,1.478.246,8.118t.492,15.375q.241,8.736.369,16.483t.123,11.192q0,1.478-.123,3.691a17.6,17.6,0,0,1-1.107,4.92,9.317,9.317,0,0,1-1.6,5.781,11.494,11.494,0,0,1-3.321,3.075" fill="#0a9faf"/>
    <path id="Path_5" data-name="Path 5" d="M267.169,143.926c-.491.327-1.684.407-3.566.246a23.518,23.518,0,0,1-5.9-1.352,15.343,15.343,0,0,1-4.8-2.583,19.33,19.33,0,0,1-1.967-2.337q-.987-1.35-.862-4.8a81.384,81.384,0,0,1,1.6-11.07q.981-4.918,2.46-10.332t3.936-13.284q1.229-.491,3.568-7.38t5.288-16.728q.981-3.441,3.444-11.562T275.287,47A100.294,100.294,0,0,1,281.438,32q-5.905,3.448-10.579,6.4T261.02,45.28a78.628,78.628,0,0,0-9.472,6.765,90.134,90.134,0,0,1-9.717,7.011q-6.642,5.166-8.978,6.642a4.184,4.184,0,0,1-4.551.247,26.993,26.993,0,0,1-6.028-8q-2.831-5.286-1.353-7.749.49-.241,3.321-2.213t6.52-4.674q3.69-2.7,6.764-4.921t4.3-2.951q.738,0,2.706-1.723a40.16,40.16,0,0,1,4.183-3.2q1.227-1.478,8.609-6.643t15.99-11.561a178,178,0,0,1,16.237-9.1q7.131-3.442,8.117-3.2.738,0,3.567,1.723a49.369,49.369,0,0,1,5.535,3.935q2.7,2.216,2.953,3.69,1.475,1.725-1.477,7.873-.986,2.213-3.2,8t-4.8,13.283q-2.583,7.508-4.92,14.761T291.523,65.7a116.474,116.474,0,0,1-3.567,11.808q-1.6,4.187-2.952,8T281.93,95.956a94.275,94.275,0,0,0-3.568,9.963q-1.844,6.032-3.321,11.808t-2.214,9.471a95.6,95.6,0,0,0-3.2,10.579q-1.233,5.165-2.46,6.149" fill="#0a9faf"/>
    <path id="Path_6" data-name="Path 6" d="M334.327,109c-.984,0-2.256-.038-3.813-.123a34.794,34.794,0,0,1-6.273-1.108,16.415,16.415,0,0,1-6.027-.86,6.023,6.023,0,0,1-3.075-2.583q-3.449-3.69-.738-7.5t15.006-3.567a153.791,153.791,0,0,1,20.418-2.706q10.822-.739,22.14-.739,7.621,0,11.07,1.477a19.549,19.549,0,0,1,6.15,4.181q4.428,3.69,3.075,7.873t-7.01,3.2q-2.463.247-9.1.492t-12.3.737q-1.723,0-6.642.369t-11.07.616q-6.152.248-11.808.246m13.53-35.178q-1.476,0-3.813-.123a39.4,39.4,0,0,1-6.519-1.107,16.569,16.569,0,0,1-5.9-.862,6,6,0,0,1-3.2-2.583q-3.447-3.69-.738-7.5t15.252-3.566a153.789,153.789,0,0,1,20.418-2.706q10.822-.738,22.14-.738,7.623,0,10.947,1.353a18.24,18.24,0,0,1,6.027,4.059q4.428,3.69,3.2,8t-7.135,3.321q-2.461.248-8.733.491t-11.931.739q-1.723,0-6.765.369t-11.316.615q-6.273.248-11.931.246" fill="#0a9faf"/>
    <path id="Path_7" data-name="Path 7" d="M458.311,139.253a31.486,31.486,0,0,1-11.932-2.337,29.831,29.831,0,0,1-9.224-5.535q-3.449-3.193-3.2-6.149a8.611,8.611,0,0,1,2.706-6.151q2.455-2.212,7.872-1.475a61.851,61.851,0,0,0,16.974,1.106,59.672,59.672,0,0,0,16.113-3.321,32.505,32.505,0,0,0,12.177-7.38q6.642-6.395,6.888-10.946T489.8,87.839a43.954,43.954,0,0,0-7.872-4.182,61.146,61.146,0,0,0-9.225-3.075,26.464,26.464,0,0,0-7.995-.861,12.679,12.679,0,0,1-5.413-.861,43.18,43.18,0,0,1-6.4-2.829,16.408,16.408,0,0,1-2.706-5.658,45.952,45.952,0,0,0-1.722-4.92q-.249-1.227,1.722-2.952a64.609,64.609,0,0,1,7.872-5.289q5.9-3.562,17.22-9.717,10.332-5.655,15.867-8.733t8.61-4.92a35.067,35.067,0,0,0,5.289-3.813q2.952-3.443,2.706-5.166t-6.642-2.952a57.617,57.617,0,0,0-9.84-.123q-3.69.369-3.691,1.353H486.6q-1.234-.489-5.412.246t-7.995,1.722q-3.818.987-4.059,1.722-.249.495-3.321,1.6a58.719,58.719,0,0,1-6.15,1.845,24.356,24.356,0,0,1-3.813.738q-1.234-.489-2.829-3.444a32.223,32.223,0,0,1-2.583-6.273q-.985-3.321-.492-4.551.49-.98,3.567-3.075t7.011-4.428a72.058,72.058,0,0,1,6.641-3.567A74.573,74.573,0,0,1,477.375,3.83q6.764-.859,13.531-1.475a64.011,64.011,0,0,1,9.717-.37q11.313,1.235,18.2,5.781t8.856,14.391a17.42,17.42,0,0,1,0,7.134,20.668,20.668,0,0,1-3.2,7.38,45.324,45.324,0,0,1-7.38,8.118q-6.153,3.938-9.471,6.519a49.957,49.957,0,0,1-8.979,5.289,27.051,27.051,0,0,1-5.412,2.706q-3.69,1.476-6.888,2.706t-3.2,1.723q4.669.737,7.5,1.352a8.191,8.191,0,0,1,4.059,1.845,34.549,34.549,0,0,1,13.16,8.487,85.03,85.03,0,0,1,8.488,9.471,23.449,23.449,0,0,1,.861,16.6,47.6,47.6,0,0,1-9.1,16.974A57.761,57.761,0,0,1,493,131.627a49.62,49.62,0,0,1-16.851,5.535q-9.965,1.6-17.835,2.091" fill="#0a9faf"/>
  </g>
</svg>
