<svg xmlns="http://www.w3.org/2000/svg" xmlns:xlink="http://www.w3.org/1999/xlink" width="14.482" height="17.565" viewBox="0 0 14.482 17.565">
  <defs>
    <clipPath id="clip-path">
      <rect id="Rectangle_263" data-name="Rectangle 263" width="14.482" height="17.565" transform="translate(0 0)" fill="none"/>
    </clipPath>
  </defs>
  <g id="Group_5" data-name="Group 5" transform="translate(0 0)">
    <g id="Group_4" data-name="Group 4" clip-path="url(#clip-path)">
      <path id="Path_8" data-name="Path 8" d="M7.24,17.565a7.241,7.241,0,0,1,0-14.482c2.545,0,3.288.2,3.454.909a.9.9,0,0,1-.521,1,.751.751,0,0,1-1-.327A16.316,16.316,0,0,0,7.24,4.583a5.741,5.741,0,1,0,5.742,5.741.75.75,0,0,1,1.5,0A7.249,7.249,0,0,1,7.24,17.565M9.509,3.647h0" fill="#f86624"/>
      <path id="Path_9" data-name="Path 9" d="M7.245,7.991a.75.75,0,0,1-.53-1.28L9.429,3.995,6.715,1.28A.75.75,0,1,1,7.775.22L11.02,3.465a.749.749,0,0,1,0,1.06L7.775,7.771a.744.744,0,0,1-.53.22" fill="#f86624"/>
    </g>
  </g>
</svg>
